<?xml version="1.0" encoding="utf-8"?>
<!-- Generator: Adobe Illustrator 22.1.0, SVG Export Plug-In . SVG Version: 6.00 Build 0)  -->
<svg version="1.1" id="Layer_1" xmlns="http://www.w3.org/2000/svg" xmlns:xlink="http://www.w3.org/1999/xlink" x="0px" y="0px"
	 viewBox="0 0 511 410.8" style="enable-background:new 0 0 511 410.8;" xml:space="preserve">
<style type="text/css">
	.st0{fill:#02BFE7;}
	.st1{fill:#105BD8;}
	.st2{fill:#0B3D91;}
	.st3{fill:#061F4A;}
	.st4{fill:#FF9D1E;}
</style>
<path class="st0" d="M190.4,182L177,131.8l-2.5-9.2l0,0l-2-7.5c-1.1-4.1-5.4-6.6-9.5-5.5l-51,13.7L61,137c-4.1,1.1-6.6,5.4-5.5,9.5
	l2,7.5l0,0l6.9,25.9l9,33.5c0.5,2,1.8,3.7,3.6,4.7c1.2,0.7,2.5,1,3.9,1c0.7,0,1.4-0.1,2-0.3l7.5-2l0,0l87-23.3l0,0l7.5-2
	c2-0.5,3.7-1.8,4.7-3.6C190.6,186.1,190.9,184,190.4,182z"/>
<path class="st1" d="M73.3,213.4c0.5,2,1.8,3.7,3.6,4.7c1.2,0.7,2.5,1,3.9,1c0.7,0,1.3-0.1,2-0.3l7.5-2l0,0l87-23.3l0,0l7.5-2
	c2-0.5,3.7-1.8,4.7-3.6s1.3-3.9,0.8-5.9l-9-33.5l-117,31.4L73.3,213.4z"/>
<path class="st2" d="M37.8,242.4c-6.9,0-13.2-4.6-15-11.5L2.9,156.6c-2.2-8.3,2.7-16.8,11-19.1l36.4-9.8c8.3-2.2,16.8,2.7,19.1,11
	L89.3,213c1.1,4,0.5,8.2-1.6,11.8s-5.4,6.2-9.4,7.3l-36.4,9.8C40.5,242.2,39.1,242.4,37.8,242.4z"/>
<path class="st2" d="M22.8,230.8c1.9,6.9,8.2,11.5,15,11.5c1.3,0,2.7-0.2,4-0.5l36.4-9.8c4-1.1,7.4-3.7,9.4-7.3s2.6-7.8,1.6-11.8
	l-9.9-37.1l-66.5,17.8L22.8,230.8z"/>
<path class="st2" d="M414.7,133.9l-23.9-89.2c-0.5-2-1.8-3.7-3.6-4.7s-3.9-1.3-5.9-0.8L333,52.1L167.4,96.5
	c-8.3,2.2-13.2,10.8-11,19.1l19.9,74.2c1.1,4,3.6,7.4,7.3,9.4c2.4,1.4,5.1,2.1,7.8,2.1c1.3,0,2.7-0.2,4-0.5l206.3-55.3l7.5-2
	c2-0.5,3.7-1.8,4.7-3.6C414.9,138,415.2,135.9,414.7,133.9z"/>
<path class="st2" d="M402.7,89.3l-236.4,63.3l9.9,37.1c1.1,4,3.6,7.4,7.3,9.4c2.4,1.4,5.1,2.1,7.8,2.1c1.3,0,2.7-0.2,4-0.5
	l206.3-55.3l7.5-2c2-0.5,3.7-1.8,4.7-3.6s1.3-3.9,0.8-5.9L402.7,89.3z"/>
<path class="st0" d="M416.6,156.8c-2.7,0-5.4-0.7-7.8-2.1c-3.6-2.1-6.2-5.4-7.3-9.4l-27.7-104c-2.2-8.3,2.7-16.8,11-19.1L459,2.3
	c4-1.1,8.2-0.5,11.8,1.6c3.6,2.1,6.2,5.4,7.3,9.4l27.8,103.9c2.2,8.3-2.7,16.8-11,19.1l-74.2,19.9
	C419.3,156.6,418,156.8,416.6,156.8z"/>
<path class="st1" d="M505.8,117.3l-13.9-52l-104.2,28l13.9,52c1.1,4,3.6,7.4,7.3,9.4c2.4,1.4,5.1,2.1,7.8,2.1c1.3,0,2.7-0.2,4-0.5
	l74.2-19.9C503.1,134.2,508.1,125.6,505.8,117.3z"/>
<path class="st3" d="M386.4,390.5l-63.2-194.2c6-7.6,9.6-17.2,9.6-27.7c0-24.7-20.1-44.9-44.9-44.9S243,143.8,243,168.6
	c0,10.4,3.6,20,9.6,27.7l-63.2,194.2c-2.7,8.2,1.8,16.9,10,19.6c1.6,0.5,3.2,0.8,4.8,0.8c6.6,0,12.7-4.2,14.8-10.8l53.3-163.8v158.3
	c0,8.6,7,15.6,15.6,15.6s15.6-7,15.6-15.6V236.2L356.8,400c2.1,6.6,8.2,10.8,14.8,10.8c1.6,0,3.2-0.2,4.8-0.8
	C384.6,407.4,389,398.6,386.4,390.5z"/>
<path class="st4" d="M287.9,154.8c-7.6,0-13.7,6.2-13.7,13.7s6.2,13.7,13.7,13.7s13.7-6.2,13.7-13.7S295.5,154.8,287.9,154.8z"/>
<text transform="matrix(1 0 0 1 -39 -218)" style="font-family:'MyriadPro-Regular'; font-size:12px;">Lorem ipsum</text>
</svg>
