<?xml version="1.0" encoding="utf-8"?>
<!-- Generator: Adobe Illustrator 22.1.0, SVG Export Plug-In . SVG Version: 6.00 Build 0)  -->
<svg version="1.1" id="Layer_1" xmlns="http://www.w3.org/2000/svg" xmlns:xlink="http://www.w3.org/1999/xlink" x="0px" y="0px"
	 viewBox="0 0 501.9 501.9" style="enable-background:new 0 0 501.9 501.9;" xml:space="preserve">
<style type="text/css">
	.st0{fill:#061F4A;}
	.st1{fill:#F1F1F1;}
	.st2{fill:#FF9D1E;}
	.st3{fill:#105BD8;}
</style>
<polygon class="st0" points="378.9,344.3 345.3,377.9 310.7,343.3 344.3,309.7 "/>
<path class="st0" d="M489.1,488.1L489.1,488.1c-19.9,19.9-52.5,19.9-72.4,0l-77.4-77.4l71.1-73.7l78.7,78.7
	C509,435.6,509,468.1,489.1,488.1z"/>
<path class="st0" d="M339,56.8c-77.7-76.6-202.5-77.7-280.2,0s-78.7,201.5-1,279.2c76.6,77.7,202.5,77.7,280.2,1
	S415.6,134.4,339,56.8z"/>
<path class="st1" d="M307.6,306.5c-60.9,59.8-159.5,59.8-219.3-1c-60.9-59.8-59.8-158.5,1-218.3s159.5-59.8,219.3,1
	C368.4,148.1,368.4,246.7,307.6,306.5z"/>
<path class="st2" d="M277.1,276.1c-44.1,43-115.4,43-158.5,0c-44.1-44.1-43-114.4,0-158.5c44.1-43,115.4-43,158.5,0
	C321.2,161.7,321.2,232,277.1,276.1z"/>
<path class="st3" d="M253,252c-30.4,30.4-79.8,30.4-110.2,0s-30.4-79.8,0-110.2s79.8-30.4,110.2,0C283.4,172.2,283.4,221.5,253,252z
	"/>
<polygon class="st0" points="390.5,317 317,388.4 347.4,418.8 419.8,346.4 "/>
</svg>
