<?xml version="1.0" encoding="utf-8"?>
<!-- Generator: Adobe Illustrator 22.1.0, SVG Export Plug-In . SVG Version: 6.00 Build 0)  -->
<svg version="1.1" id="Layer_1" xmlns="http://www.w3.org/2000/svg" xmlns:xlink="http://www.w3.org/1999/xlink" x="0px" y="0px"
	 viewBox="0 0 504 504" style="enable-background:new 0 0 504 504;" xml:space="preserve">
<style type="text/css">
	.st0{display:none;fill:#E8EAEA;}
	.st1{display:none;fill:#FF9D1E;}
	.st2{display:none;fill:#FFEBD1;}
	.st3{display:none;fill:#F9AA43;}
	.st4{fill:#105BD8;}
	.st5{fill:#C62D1F;}
	.st6{fill:#061F4A;}
	.st7{fill:#FF9D1E;}
	.st8{fill:#02BFE7;}
</style>
<path class="st0" d="M252,92.4C164,92.4,92.4,164,92.4,252S164,411.6,252,411.6S411.6,340,411.6,252S340,92.4,252,92.4z M252,381.6
	c-71.5,0-129.6-58.1-129.6-129.6S180.5,122.4,252,122.4S381.6,180.5,381.6,252S323.5,381.6,252,381.6z"/>
<path class="st1" d="M244.5,267.4c0,29.3-23.8,53.1-53.1,53.1V214.3C220.7,214.3,244.5,238.1,244.5,267.4z"/>
<path class="st2" d="M179.9,296.2c0-0.8-0.1-1.5-0.3-2.2c-1.3-0.8-2.8-1.2-4.4-1.2c-4.5,0.1-8.1,3.8-8.1,8.3c0,0.8,0.1,1.5,0.3,2.2
	c1.3,0.8,2.8,1.2,4.4,1.2C176.3,304.4,179.9,300.7,179.9,296.2z"/>
<path class="st1" d="M161.8,296.4c0.1,5.4,4.5,9.8,9.9,9.8c0,0,0.1,0,0.1,0c5.4-0.1,9.8-4.5,9.8-10c-0.1-5.4-4.5-9.8-9.9-9.8
	c0,0-0.1,0-0.1,0C166.1,286.5,161.8,290.9,161.8,296.4z M171.6,289.8C171.7,289.8,171.7,289.8,171.6,289.8c3.6,0,6.5,2.9,6.6,6.4
	c0,3.6-2.8,6.5-6.4,6.6c-1.7,0-3.4-0.6-4.6-1.9c-1.2-1.2-1.9-2.8-2-4.6C165.2,292.8,168,289.8,171.6,289.8z"/>
<path class="st2" d="M226.5,260.2c0-0.8-0.1-1.5-0.3-2.2c-1.3-0.8-2.8-1.2-4.4-1.2c-4.5,0.1-8.1,3.8-8.1,8.3c0,0.8,0.1,1.5,0.3,2.2
	c1.3,0.8,2.8,1.2,4.4,1.2C222.9,268.4,226.6,264.7,226.5,260.2z"/>
<path class="st3" d="M208.5,260.4c0.1,5.4,4.5,9.8,9.9,9.8c0,0,0.1,0,0.1,0c5.4-0.1,9.8-4.5,9.8-10c-0.1-5.4-4.5-9.8-9.9-9.8
	c0,0-0.1,0-0.1,0C212.8,250.5,208.4,254.9,208.5,260.4z M218.3,253.8C218.3,253.8,218.3,253.8,218.3,253.8c3.6,0,6.5,2.9,6.6,6.4
	c0,3.6-2.8,6.5-6.4,6.6c-1.7,0-3.4-0.6-4.6-1.9c-1.2-1.2-1.9-2.8-2-4.6C211.8,256.8,214.7,253.8,218.3,253.8z"/>
<path class="st4" d="M485.2,252c0,131-106.2,237.2-237.2,237.2S10.8,383,10.8,252S117,14.8,248,14.8c53.8,0,103.4,17.9,143.2,48.1
	l55.4,59.2C471,159.4,485.2,204,485.2,252z"/>
<path class="st5" d="M485.2,252c0,131-106.2,237.2-237.2,237.2V14.8c53.8,0,103.4,17.9,143.2,48.1l55.4,59.2
	C471,159.4,485.2,204,485.2,252z"/>
<path class="st6" d="M248,177.8c-40.9,0-74.2,33.3-74.2,74.2s33.3,74.2,74.2,74.2s74.2-33.3,74.2-74.2S288.9,177.8,248,177.8z
	 M248,296.7c-24.6,0-44.7-20.1-44.7-44.7s20.1-44.7,44.7-44.7s44.7,20.1,44.7,44.7S272.6,296.7,248,296.7z"/>
<path class="st6" d="M500,252c0,67.3-26.2,130.6-73.8,178.2C378.6,477.8,315.3,504,248,504s-130.6-26.2-178.2-73.8
	C22.2,382.6-4,319.3-4,252S22.2,121.4,69.8,73.8C117.4,26.2,180.7,0,248,0c55.4,0,108,17.7,152.1,51.1l-17.8,23.5
	C343.4,45.1,296.9,29.5,248,29.5C125.3,29.5,25.5,129.3,25.5,252S125.3,474.5,248,474.5S470.5,374.7,470.5,252
	c0-43.5-12.6-85.6-36.3-121.8l24.7-16.2C485.8,155,500,202.7,500,252z"/>
<path class="st7" d="M240.6,267.2c0,28.8-23.5,52.3-52.3,52.3s-52.3-23.5-52.3-52.3c0-28.8,23.5-52.3,52.3-52.3
	S240.6,238.3,240.6,267.2z"/>
<path class="st8" d="M465.2,91.8c0,25.1-20.4,45.4-45.4,45.4c-25,0-45.4-20.4-45.4-45.4c0-25,20.4-45.4,45.4-45.4
	C444.8,46.4,465.2,66.7,465.2,91.8z"/>
</svg>
