<?xml version="1.0" encoding="utf-8"?>
<!-- Generator: Adobe Illustrator 22.1.0, SVG Export Plug-In . SVG Version: 6.00 Build 0)  -->
<svg version="1.1" id="Layer_1" xmlns="http://www.w3.org/2000/svg" xmlns:xlink="http://www.w3.org/1999/xlink" x="0px" y="0px"
	 viewBox="0 0 379.3 379.3" style="enable-background:new 0 0 379.3 379.3;" xml:space="preserve">
<style type="text/css">
	.st0{fill:#C7AEE4;}
	.st1{fill:#B18CD9;}
	.st2{fill:#C2EAFB;}
	.st3{fill:#91D4F2;}
	.st4{fill:#59C2E8;}
</style>
<path class="st0" d="M262.8,262.8c-44.6,44.6-93.3,80-137.1,99.8c-49,22.1-87.9,22.3-109.6,0.6c-21.7-21.7-21.5-60.6,0.6-109.6
	c19.8-43.9,55.2-92.6,99.8-137.1s93.3-80,137.1-99.8c49-22.1,87.9-22.3,109.6-0.6s21.5,60.6-0.6,109.6
	C342.8,169.6,307.4,218.3,262.8,262.8z M140.6,140.6c-41.7,41.7-74.7,86.8-92.8,127c-15.2,33.6-18.1,60.9-7.6,71.4
	c10.5,10.5,37.8,7.6,71.4-7.6c40.2-18.1,85.3-51.1,127-92.8s74.7-86.8,92.8-127c15.1-33.6,18.1-60.9,7.6-71.4
	c-10.5-10.5-37.8-7.6-71.4,7.6C227.5,66,182.3,98.9,140.6,140.6z"/>
<path class="st1" d="M40.2,339.1C40.2,339.1,40.2,339.1,40.2,339.1c-10.5-10.5-7.6-37.8,7.6-71.4c18.1-40.2,51.1-85.3,92.8-127
	c41.7-41.7,86.8-74.7,127-92.8c33.6-15.1,60.9-18.1,71.4-7.6c-0.4-0.4-21.4-21-63.1-32.3c-7.2,2.4-14.6,5.3-22.3,8.8
	c-43.9,19.8-92.6,55.2-137.1,99.8c-44.6,44.6-80,93.3-99.8,137.1C16.7,253.6,7.3,309.3,40.2,339.1z"/>
<path class="st2" d="M363.4,189.7c0,96-77.8,173.8-173.8,173.8c-96,0-173.8-77.8-173.8-173.8c0-96,77.8-173.8,173.8-173.8
	C285.6,15.9,363.4,93.7,363.4,189.7z"/>
<path class="st3" d="M312.5,312.5c9.3-9.3,17.3-19.3,24-29.9c-5.7-9.7-9.9-23.8-9.4-44.5c1.4-59.7,0-78.4,0-78.4
	s-69.3,87.6-69.8,88.8c-123.5,55.1-199.3,0.8-241.3-55c1,43.2,17.9,86.1,50.9,119C134.7,380.4,244.7,380.4,312.5,312.5z"/>
<path class="st4" d="M308.5,189.7c0,15.7-12.8,28.5-28.5,28.5c-15.7,0-28.5-12.8-28.5-28.5c0-15.7,12.8-28.5,28.5-28.5
	C295.8,161.2,308.5,173.9,308.5,189.7z"/>
<path class="st0" d="M344,73.5c-2,11.1-6.2,24.1-12.5,38.2c-18.1,40.2-51.1,85.3-92.8,127s-86.8,74.7-127,92.8
	c-13,5.9-25,9.9-35.5,12l27.7,27.7c7-2.4,14.3-5.2,21.8-8.6c43.9-19.8,92.6-55.2,137.1-99.8c44.6-44.6,80-93.3,99.8-137.1
	c3.8-8.4,6.9-16.4,9.4-24.2L344,73.5z"/>
<path class="st4" d="M222.1,18.9c-40.8-7.7-83.8-0.7-120.6,20.9c2.9,9.3,8,18,15.3,25.4c24.1,24.1,63.2,24.1,87.3,0
	C216.8,52.5,222.8,35.6,222.1,18.9z"/>
<path class="st4" d="M262.1,300.5c-17.7,11.7-23.5,34.5-14.2,53c23.6-8.4,45.8-22,64.7-40.9c1.4-1.4,2.7-2.7,4-4.1
	C303.2,292.5,279.8,288.8,262.1,300.5z"/>
</svg>
