<svg height="511pt" viewBox="1 -20 511.99948 511" width="511pt" xmlns="http://www.w3.org/2000/svg"><path d="m343.414062 354.332031c-44.640624 44.644531-93.4375 80.152344-137.394531 99.980469-49.0625 22.132812-88.050781 22.351562-109.785156.617188-21.734375-21.730469-21.515625-60.722657.617187-109.785157 19.828126-43.957031 55.335938-92.75 99.980469-137.394531s93.4375-80.152344 137.394531-99.980469c49.0625-22.132812 88.050782-22.351562 109.785157-.617187s21.515625 60.722656-.617188 109.785156c-19.828125 43.957031-55.335937 92.75-99.980469 137.394531zm-122.410156-122.410156c-41.792968 41.792969-74.816406 86.996094-92.988281 127.28125-15.179687 33.648437-18.09375 61.066406-7.609375 71.554687 10.488281 10.488282 37.90625 7.570313 71.554688-7.605468 40.285156-18.171875 85.488281-51.199219 127.28125-92.992188 41.792968-41.792968 74.820312-86.996094 92.992187-127.28125 15.175781-33.648437 18.09375-61.066406 7.605469-71.554687-10.488282-10.484375-37.90625-7.570313-71.554688 7.605469-40.285156 18.171874-85.488281 51.199218-127.28125 92.992187zm0 0" fill="#c7aee4"/><path d="m120.40625 430.757812c.003906.003907.003906.003907 0 0-10.484375-10.488281-7.570312-37.90625 7.609375-71.554687 18.167969-40.285156 51.195313-85.488281 92.988281-127.28125 41.792969-41.796875 86.996094-74.820313 127.28125-92.992187 33.625-15.167969 61.027344-18.089844 71.53125-7.625-.425781-.421876-21.453125-21-63.261718-32.335938-7.175782 2.394531-14.625 5.324219-22.328126 8.800781-43.957031 19.828125-92.75 55.335938-137.394531 99.976563-44.644531 44.644531-80.152343 93.441406-99.980469 137.398437 0 .003907-9.496093 55.726563 23.554688 85.613281zm0 0" fill="#b18cd9"/><path d="m444.222656 281.039062c0 96.15625-77.945312 174.101563-174.097656 174.101563-96.15625 0-174.101562-77.945313-174.101562-174.101563 0-96.152343 77.945312-174.097656 174.101562-174.097656 96.152344 0 174.097656 77.945313 174.097656 174.097656zm0 0" fill="#c2eafb"/><path d="m393.230469 404.148438c9.285156-9.28125 17.296875-19.347657 24.042969-29.992188-5.714844-9.691406-9.9375-23.875-9.460938-44.570312 1.375-59.785157 0-78.542969 0-78.542969s-69.429688 87.757812-69.933594 88.960937c-123.746094 55.207032-199.707031.765625-241.8125-55.113281.953125 43.261719 17.9375 86.242187 50.953125 119.257813 67.988281 67.988281 178.222657 67.988281 246.210938 0zm0 0" fill="#91d4f2"/><path d="m389.210938 281.039062c0 15.777344-12.785157 28.566407-28.5625 28.566407-15.773438 0-28.5625-12.789063-28.5625-28.566407 0-15.773437 12.789062-28.5625 28.5625-28.5625 15.777343 0 28.5625 12.789063 28.5625 28.5625zm0 0" fill="#59c2e8"/><path d="m424.773438 164.640625c-1.96875 11.128906-6.175782 24.128906-12.539063 38.238281-18.171875 40.285156-51.199219 85.488282-92.992187 127.28125-41.792969 41.792969-86.996094 74.820313-127.28125 92.992188-12.996094 5.863281-25.046876 9.890625-35.570313 12.03125l27.773437 27.773437c7.03125-2.367187 14.324219-5.246093 21.855469-8.644531 43.957031-19.832031 92.753907-55.335938 137.394531-99.980469 44.644532-44.644531 80.152344-93.4375 99.980469-137.394531 3.789063-8.398438 6.929688-16.480469 9.433594-24.25zm0 0" fill="#c7aee4"/><path d="m302.613281 109.980469c-40.875-7.726563-83.984375-.730469-120.816406 20.980469 2.871094 9.300781 7.976563 18.0625 15.339844 25.425781 24.144531 24.144531 63.289062 24.144531 87.433593 0 12.753907-12.753907 18.765626-29.703125 18.042969-46.40625zm0 0" fill="#59c2e8"/><path d="m342.667969 392.058594c-17.6875 11.675781-23.5 34.585937-14.269531 53.085937 23.675781-8.390625 45.894531-22.058593 64.839843-41.003906 1.367188-1.367187 2.707031-2.75 4.019531-4.152344-13.359374-15.921875-36.828124-19.65625-54.589843-7.929687zm0 0" fill="#59c2e8"/><path d="m81.652344 202.292969 6.148437 11.234375c6.128907 11.210937 15.34375 20.425781 26.550781 26.554687l11.238282 6.148438c11.5 6.289062 11.5 22.804687 0 29.09375l-11.238282 6.144531c-11.207031 6.128906-20.421874 15.34375-26.550781 26.554688l-6.148437 11.234374c-6.289063 11.5-22.804688 11.5-29.09375 0l-6.144532-11.234374c-6.128906-11.210938-15.34375-20.425782-26.554687-26.554688l-11.234375-6.144531c-11.5-6.289063-11.5-22.804688 0-29.09375l11.234375-6.148438c11.210937-6.128906 20.425781-15.34375 26.554687-26.554687l6.144532-11.234375c6.289062-11.5 22.804687-11.5 29.09375 0zm0 0" fill="#f9ee80"/><path d="m478.304688 6.027344 3.941406 7.203125c3.929687 7.1875 9.835937 13.09375 17.019531 17.023437l7.203125 3.9375c7.375 4.03125 7.375 14.621094 0 18.652344l-7.203125 3.9375c-7.183594 3.929688-13.089844 9.835938-17.019531 17.023438l-3.941406 7.203124c-4.03125 7.371094-14.617188 7.371094-18.648438 0l-3.941406-7.203124c-3.925782-7.1875-9.835938-13.09375-17.019532-17.023438l-7.203124-3.9375c-7.371094-4.035156-7.371094-14.621094 0-18.652344l7.203124-3.9375c7.183594-3.929687 13.09375-9.839844 17.019532-17.023437l3.941406-7.203125c4.03125-7.371094 14.617188-7.371094 18.648438 0zm0 0" fill="#f9ee80"/><g fill="#454545"><path d="m297.257812 218.128906c-3.019531 3.015625-7.910156 3.015625-10.929687 0l-9.070313-9.070312c-3.015624-3.019532-3.015624-7.910156 0-10.925782 3.019532-3.019531 7.910157-3.019531 10.929688 0l9.070312 9.066407c3.015626 3.019531 3.015626 7.910156 0 10.929687zm0 0"/><path d="m207.210938 308.175781c-3.015626 3.015625-7.910157 3.015625-10.925782 0l-9.070312-9.070312c-3.019532-3.019531-3.019532-7.910157 0-10.929688 3.015625-3.015625 7.910156-3.015625 10.925781 0l9.070313 9.070313c3.019531 3.019531 3.019531 7.910156 0 10.929687zm0 0"/><path d="m259.570312 248.589844c-7.703124-7.707032-18.855468-9.050782-24.902343-3.003906-6.050781 6.050781-4.707031 17.199218 3 24.90625 7.707031 7.707031 18.855469 9.050781 24.90625 3 6.046875-6.046876 4.703125-17.199219-3.003907-24.902344zm0 0"/></g></svg>