<?xml version="1.0" encoding="utf-8"?>
<!-- Generator: Adobe Illustrator 22.1.0, SVG Export Plug-In . SVG Version: 6.00 Build 0)  -->
<svg version="1.1" id="Layer_1" xmlns="http://www.w3.org/2000/svg" xmlns:xlink="http://www.w3.org/1999/xlink" x="0px" y="0px"
	 viewBox="0 0 512 512" style="enable-background:new 0 0 512 512;" xml:space="preserve">
<style type="text/css">
	.st0{fill:#63CEEA;}
	.st1{fill:#E88E8E;}
	.st2{display:none;fill:#E8EAEA;}
	.st3{fill:#E8EAEA;}
	.st4{fill:#FF9900;}
	.st5{fill:#CC99CC;}
	.st6{fill:#E57500;}
	.st7{fill:#FEDA9B;}
</style>
<path class="st0" d="M497,256c0,133.1-107.9,241-241,241S15,389.1,15,256S122.9,15,256,15c54.6,0,105,18.2,145.4,48.8l56.2,60.2
	C482.5,161.9,497,207.3,497,256z"/>
<path class="st1" d="M497,256c0,133.1-107.9,241-241,241V15c54.6,0,105,18.2,145.4,48.8l56.2,60.2C482.5,161.9,497,207.3,497,256z"
	/>
<path class="st2" d="M256,96.4C168,96.4,96.4,168,96.4,256S168,415.6,256,415.6S415.6,344,415.6,256S344,96.4,256,96.4z M256,385.6
	c-71.5,0-129.6-58.1-129.6-129.6S184.5,126.4,256,126.4S385.6,184.5,385.6,256S327.5,385.6,256,385.6z"/>
<path class="st3" d="M256,180.6c-41.6,0-75.4,33.8-75.4,75.4s33.8,75.4,75.4,75.4s75.4-33.8,75.4-75.4S297.6,180.6,256,180.6z
	 M256,301.4c-25,0-45.4-20.4-45.4-45.4s20.4-45.4,45.4-45.4s45.4,20.4,45.4,45.4S281,301.4,256,301.4z"/>
<path class="st3" d="M512,256c0,68.4-26.6,132.7-75,181c-48.3,48.4-112.6,75-181,75s-132.7-26.6-181-75C26.6,388.7,0,324.4,0,256
	S26.6,123.3,75,75C123.3,26.6,187.6,0,256,0c56.3,0,109.7,17.9,154.5,51.9l-18.1,23.9C352.9,45.8,305.7,30,256,30
	C131.4,30,30,131.4,30,256s101.4,226,226,226s226-101.4,226-226c0-44.2-12.8-87-36.9-123.8l25.1-16.4C497.6,157.5,512,206,512,256z"
	/>
<path class="st4" d="M248.5,271.4c0,29.3-23.8,53.1-53.1,53.1s-53.1-23.8-53.1-53.1c0-29.3,23.8-53.1,53.1-53.1
	S248.5,242.1,248.5,271.4z"/>
<path class="st5" d="M476.6,93.2c0,25.4-20.7,46.2-46.1,46.2c-25.4,0-46.1-20.7-46.1-46.2c0-25.4,20.7-46.1,46.1-46.1
	C455.9,47.1,476.6,67.8,476.6,93.2z"/>
<path class="st6" d="M248.5,271.4c0,29.3-23.8,53.1-53.1,53.1V218.3C224.7,218.3,248.5,242.1,248.5,271.4z"/>
<path class="st7" d="M183.9,300.2c0-0.8-0.1-1.5-0.3-2.2c-1.3-0.8-2.8-1.2-4.4-1.2c-4.5,0.1-8.1,3.8-8.1,8.3c0,0.8,0.1,1.5,0.3,2.2
	c1.3,0.8,2.8,1.2,4.4,1.2C180.3,308.4,183.9,304.7,183.9,300.2z"/>
<path class="st6" d="M165.8,300.4c0.1,5.4,4.5,9.8,9.9,9.8c0,0,0.1,0,0.1,0c5.4-0.1,9.8-4.5,9.8-10c-0.1-5.4-4.5-9.8-9.9-9.8
	c0,0-0.1,0-0.1,0C170.1,290.5,165.8,294.9,165.8,300.4z M175.6,293.8C175.7,293.8,175.7,293.8,175.6,293.8c3.6,0,6.5,2.9,6.6,6.4
	c0,3.6-2.8,6.5-6.4,6.6c-1.7,0-3.4-0.6-4.6-1.9c-1.2-1.2-1.9-2.8-2-4.6C169.2,296.8,172,293.8,175.6,293.8z"/>
</svg>
