<?xml version="1.0" encoding="utf-8"?>
<!-- Generator: Adobe Illustrator 22.1.0, SVG Export Plug-In . SVG Version: 6.00 Build 0)  -->
<svg version="1.1" id="Layer_1" xmlns="http://www.w3.org/2000/svg" xmlns:xlink="http://www.w3.org/1999/xlink" x="0px" y="0px"
	 viewBox="0 0 512 512" style="enable-background:new 0 0 512 512;" xml:space="preserve">
<style type="text/css">
	.st0{fill:#105BD8;}
	.st1{fill:#FFFFFF;}
	.st2{fill:#FF9D1E;}
	.st3{fill:#C62D1F;}
	.st4{fill:#0B3D91;}
</style>
<circle class="st0" cx="257" cy="256" r="252"/>
<circle class="st1" cx="257" cy="256" r="204.2"/>
<path class="st2" d="M342.3,197.7c7.5-7.5,7.5-19.6,0-27c-7.5-7.5-19.6-7.5-27,0l-72.5,72.5l27,27L342.3,197.7z"/>
<path class="st3" d="M245.4,250.7L137.9,358.2c-4.7,4.7-4.7,12.2,0,16.9c2.3,2.3,5.4,3.5,8.4,3.5s6.1-1.2,8.4-3.5l107.5-107.5
	L245.4,250.7z"/>
<path class="st2" d="M173.4,145.4c-7.5-7.5-19.6-7.5-27,0c-7.5,7.5-7.5,19.6,0,27l97.8,97.8l27-27L173.4,145.4z"/>
<path class="st4" d="M257,285.9c-16.5,0-29.9-13.4-29.9-29.9s13.4-29.9,29.9-29.9s29.9,13.4,29.9,29.9S273.5,285.9,257,285.9z"/>
<g>
	<path class="st4" d="M118.5,267.9h-17.9c-6.6,0-11.9-5.3-11.9-11.9c0-6.6,5.3-11.9,11.9-11.9h17.9c6.6,0,11.9,5.3,11.9,11.9
		C130.4,262.6,125.1,267.9,118.5,267.9z"/>
	<path class="st4" d="M257,129.4c-6.6,0-11.9-5.3-11.9-11.9V99.5c0-6.6,5.3-11.9,11.9-11.9S269,93,269,99.5v17.9
		C269,124.1,263.6,129.4,257,129.4z"/>
	<path class="st4" d="M413.5,267.9h-17.9c-6.6,0-11.9-5.3-11.9-11.9c0-6.6,5.3-11.9,11.9-11.9h17.9c6.6,0,11.9,5.3,11.9,11.9
		C425.4,262.6,420.1,267.9,413.5,267.9z"/>
	<path class="st4" d="M257,424.4c-6.6,0-11.9-5.3-11.9-11.9v-17.9c0-6.6,5.3-11.9,11.9-11.9s11.9,5.3,11.9,11.9v17.9
		C269,419,263.6,424.4,257,424.4z"/>
</g>
</svg>
