<?xml version="1.0" encoding="utf-8"?>
<!-- Generator: Adobe Illustrator 22.1.0, SVG Export Plug-In . SVG Version: 6.00 Build 0)  -->
<svg version="1.1" id="Layer_1" xmlns="http://www.w3.org/2000/svg" xmlns:xlink="http://www.w3.org/1999/xlink" x="0px" y="0px"
	 viewBox="0 0 511 511" style="enable-background:new 0 0 511 511;" xml:space="preserve">
<style type="text/css">
	.st0{fill:#FFFFFF;}
	.st1{fill:#FFC375;}
	.st2{fill:#FF9D1E;}
	.st3{fill:#105BD8;}
	.st4{fill:#061F4A;}
</style>
<circle class="st0" cx="249.5" cy="253" r="180.4"/>
<path class="st1" d="M82.8,249.5V295c19.7,15.4,48.3,14.1,66.4-4.1c7.9-7.9,12.6-17.8,14.2-28.1c-2.4-4.8-5.5-9.4-9.6-13.4
	C134.2,229.9,102.4,229.9,82.8,249.5z"/>
<path class="st2" d="M390.8,144.1c-30.5-24.5-69.2-39.1-111.3-39.1c-70.5,0-131.4,41-160.3,100.4c11.3,1,22.3,5.8,31,14.5
	c19.6,19.6,19.6,51.4,0,71c-12.9,12.9-31,17.3-47.5,13.3c4,33.9,17.6,64.8,37.9,90.1c30.5,24.5,69.2,39.1,111.3,39.1
	c98.3,0,178-79.7,178-178C429.9,213.3,415.3,174.6,390.8,144.1z M281.5,226.9c-26.4,0.3-48-20.8-48.3-47.2
	c-0.3-26.4,20.8-48,47.2-48.3s48,20.8,48.3,47.2C329,205,307.9,226.6,281.5,226.9z"/>
<path class="st3" d="M351.5,334.2c0,19.6-15.9,35.4-35.4,35.4c-19.6,0-35.4-15.9-35.4-35.4c0-19.6,15.9-35.4,35.4-35.4
	C335.6,298.8,351.5,314.6,351.5,334.2z"/>
<path class="st1" d="M325.8,179.6c-0.1-4.5-0.7-8.9-2-13c-7.4-4.6-16.2-7.3-25.7-7.1c-26.4,0.3-47.5,21.9-47.2,48.3
	c0,4.5,0.7,8.9,2,13c7.4,4.6,16.2,7.3,25.7,7.1C304.9,227.6,326.1,206,325.8,179.6z"/>
<path class="st4" d="M479.3,114.9c-4.9-2.3-10.8-0.1-13.1,4.8l-0.2,0.5c-2.3,4.9-0.1,10.8,4.8,13.1c1.3,0.6,2.7,0.9,4.1,0.9
	c3.7,0,7.3-2.1,9-5.7l0.2-0.5C486.4,123,484.3,117.1,479.3,114.9z"/>
<path class="st4" d="M490.2,17.2C479.1,6,456-4,409.1,11.4C376.7,22,337.6,43.2,295.9,72.8c-14.1-3.4-28.8-5.2-43.9-5.2
	c-103.6,0-187.9,84.3-187.9,187.9c0,15.1,1.8,29.8,5.2,43.9c-29.5,41.8-50.7,80.8-61.4,113.2c-15.4,46.9-5.4,70,5.8,81.1
	c9.2,9.2,22.1,13.7,38.3,13.7c20.5,0,46.4-7.3,76.8-21.8c24.6-11.7,51.4-27.9,79.2-47.5c14.1,3.4,28.8,5.2,43.9,5.2
	c103.6,0,187.9-84.3,187.9-187.9c0-15.1-1.8-29.8-5.2-43.9c12.5-17.7,23.6-35.1,33.2-52c2.7-4.7,1-10.7-3.7-13.4
	c-4.7-2.7-10.7-1-13.4,3.7c-7,12.3-14.9,25-23.5,37.8c-19.1-49.2-58.3-88.4-107.5-107.5c35.4-23.9,68.2-41.1,95.5-50.1
	c29.1-9.6,50.8-9.2,61.1,1c12.4,12.4,8.1,37.6,2.4,56.6c-1.6,5.2,1.4,10.7,6.6,12.3c0.9,0.3,1.9,0.4,2.9,0.4c4.2,0,8.1-2.7,9.4-7
	C508.1,58.3,505.7,32.6,490.2,17.2z M83.8,255.4c0-10.1,0.9-20,2.6-29.7c7.5-6.9,17.1-10.7,27.4-10.7c10.8,0,20.9,4.2,28.5,11.8
	c15.7,15.7,15.7,41.3,0,57.1c-7.6,7.6-17.8,11.8-28.5,11.8c-10.2,0-19.9-3.8-27.4-10.7C84.7,275.5,83.8,265.6,83.8,255.4z
	 M120.3,467.9c-45,21.5-78.8,25.8-92.7,11.9c-10.2-10.2-10.6-31.9-1-61.1c9-27.4,26.2-60.1,50.1-95.5
	c19.1,49.2,58.3,88.4,107.4,107.4C161.8,445.7,140.3,458.3,120.3,467.9z M420.1,255.4c0,92.7-75.4,168.2-168.2,168.2
	c-7.5,0-14.9-0.5-22.2-1.5c20.1-15.3,40.6-32.2,60.9-50.5c7.3,5,16,7.9,25.5,7.9c25,0,45.3-20.3,45.3-45.3c0-9.1-2.7-17.6-7.4-24.7
	c23.8-25.4,45.5-51,64.7-76.2C419.6,240.5,420.1,247.9,420.1,255.4z M341.7,334.2c0,14.1-11.5,25.6-25.6,25.6
	c-14.1,0-25.6-11.5-25.6-25.6s11.5-25.6,25.6-25.6C330.2,308.6,341.7,320.1,341.7,334.2z M413.2,207.7c-21,28.9-45.7,58.6-73.3,88.1
	c-6.9-4.3-15.1-6.8-23.8-6.8c-25,0-45.3,20.3-45.3,45.3c0,8.4,2.3,16.3,6.3,23.1c-24.4,22-49,42-73,59.4
	c-51.4-15.3-92.6-54.5-110.5-104.6c6.4,2.3,13.2,3.5,20.2,3.5c16,0,31.1-6.2,42.5-17.6c11.3-11.3,17.6-26.4,17.6-42.5
	c0-16-6.2-31.1-17.6-42.5c-11.3-11.3-26.4-17.6-42.5-17.6c-7,0-13.8,1.2-20.2,3.5c23.3-65,85.5-111.6,158.4-111.6
	C328.1,87.3,392.5,138.1,413.2,207.7z"/>
<path class="st4" d="M220.4,180.8c0.4,31.5,26.1,56.9,57.6,56.9c0.2,0,0.4,0,0.7,0c31.8-0.4,57.3-26.5,56.9-58.2
	c-0.4-31.5-26.1-56.9-57.6-56.9c-0.2,0-0.4,0-0.7,0C245.6,122.9,220.1,149,220.4,180.8z M277.6,142.2c0.1,0,0.3,0,0.4,0
	c20.7,0,37.7,16.7,37.9,37.5c0.2,20.9-16.6,38.1-37.5,38.3c-10.1,0.1-19.7-3.7-26.9-10.8c-7.2-7.1-11.3-16.5-11.4-26.7
	C239.9,159.7,256.7,142.5,277.6,142.2z"/>
<path class="st4" d="M189.9,366.7c-2.6,0-5.1,1.1-7,2.9c-1.8,1.8-2.9,4.4-2.9,7s1.1,5.1,2.9,7c1.8,1.8,4.4,2.9,7,2.9
	c2.6,0,5.1-1.1,7-2.9c1.8-1.8,2.9-4.4,2.9-7s-1-5.1-2.9-7C195,367.7,192.5,366.7,189.9,366.7z"/>
<path class="st4" d="M220.8,259.7c-2.6,0-5.1,1.1-7,2.9c-1.8,1.8-2.9,4.4-2.9,7c0,2.6,1.1,5.1,2.9,7c1.8,1.8,4.4,2.9,7,2.9
	c2.6,0,5.1-1,7-2.9c1.8-1.8,2.9-4.4,2.9-7c0-2.6-1-5.1-2.9-7C225.9,260.8,223.4,259.7,220.8,259.7z"/>
<path class="st4" d="M367.1,222.5c2.6,0,5.1-1.1,7-2.9c1.8-1.8,2.9-4.4,2.9-7c0-2.6-1.1-5.1-2.9-7c-1.8-1.8-4.4-2.9-7-2.9
	s-5.1,1.1-7,2.9c-1.8,1.8-2.9,4.4-2.9,7c0,2.6,1.1,5.1,2.9,7C362,221.4,364.5,222.5,367.1,222.5z"/>
</svg>
